Coordinates
version=1
nRows=16
nColumns=63
inDegrees=yes

Units are S.I. units (second, meters, Newtons, ...)
If the header above contains a line with 'inDegrees', this indicates whether rotational values are in degrees (yes) or radians (no).

endheader
time	pelvis_tilt	pelvis_list	pelvis_rotation	pelvis_tx	pelvis_ty	pelvis_tz	hip_flexion_r	hip_adduction_r	hip_rotation_r	knee_angle_r	knee_angle_r_beta	ankle_angle_r	subtalar_angle_r	mtp_angle_r	hip_flexion_l	hip_adduction_l	hip_rotation_l	knee_angle_l	knee_angle_l_beta	ankle_angle_l	subtalar_angle_l	mtp_angle_l	L5_S1_Flex_Ext	L5_S1_Lat_Bending	L5_S1_axial_rotation	L4_L5_Flex_Ext	L4_L5_Lat_Bending	L4_L5_axial_rotation	L3_L4_Flex_Ext	L3_L4_Lat_Bending	L3_L4_axial_rotation	L2_L3_Flex_Ext	L2_L3_Lat_Bending	L2_L3_axial_rotation	L1_L2_Flex_Ext	L1_L2_Lat_Bending	L1_L2_axial_rotation	L1_T12_Flex_Ext	L1_T12_Lat_Bending	L1_T12_axial_rotation	Abs_r3	Abs_r2	Abs_r1	Abs_t1	Abs_t2	neck_flexion	neck_bending	neck_rotation	arm_flex_r	arm_add_r	arm_rot_r	elbow_flex_r	pro_sup_r	wrist_flex_r	wrist_dev_r	arm_flex_l	arm_add_l	arm_rot_l	elbow_flex_l	pro_sup_l	wrist_flex_l	wrist_dev_l
5.288136	-3.519230	-5.832972	93.102962	0.229052	0.979195	0.521878	7.633304	-4.522154	-13.460592	10.414717	0.181771	22.214895	14.765940	0.000000	6.534671	3.555478	-13.801655	3.403450	0.059401	19.931832	13.625502	0.000000	0.293607	-0.723997	0.727077	0.545258	-0.962916	0.772520	0.482368	-1.760327	0.772520	0.335564	-1.760327	0.636193	0.272644	-1.476375	0.590750	0.167767	-1.121472	0.545308	2.097208	-8.190003	4.043786	0.000000	0.000000	28.118156	4.872741	-4.166004	20.415526	-18.002103	108.235792	5.730301	-0.699676	-10.401994	-3.638688	13.136662	-30.421585	141.684904	7.648346	22.225172	-4.121424	1.027553
5.305085	-3.672747	-5.745192	93.092459	0.229199	0.979627	0.522117	7.498470	-4.632267	-13.185378	10.177845	0.177637	22.391711	14.855376	0.000000	6.484701	3.703786	-13.627057	3.538908	0.061766	19.937303	13.538428	0.000000	0.277172	-0.743070	0.665800	0.514736	-0.988283	0.707413	0.455365	-1.806700	0.707413	0.316780	-1.806700	0.582575	0.257382	-1.515268	0.540963	0.158376	-1.151015	0.499350	1.979810	-8.405754	3.702982	0.000000	0.000000	28.061627	5.336015	-3.851093	19.497508	-19.703648	98.959964	7.341461	0.902928	-9.410085	-3.475969	12.228876	-33.086471	138.828627	8.120435	24.719665	-4.539327	2.216882
5.322034	-3.761064	-5.610761	93.097377	0.229090	0.980238	0.522402	7.313535	-4.683004	-12.889817	9.901041	0.172806	22.534803	14.946317	0.000000	6.383977	3.801231	-13.376857	3.668930	0.064035	19.906771	13.347720	0.000000	0.256844	-0.746562	0.598912	0.476985	-0.992928	0.636344	0.421969	-1.815192	0.636344	0.293547	-1.815192	0.524048	0.238505	-1.522390	0.486616	0.146761	-1.156425	0.449184	1.834611	-8.445263	3.330971	0.000000	0.000000	27.991639	5.723417	-3.284455	18.571545	-21.509149	87.781810	9.249854	5.262948	-8.960325	-3.267683	11.485740	-35.317687	137.700684	8.823918	27.020054	-4.917216	3.618988
5.338983	-3.811482	-5.447802	93.127279	0.228868	0.981045	0.522699	7.090423	-4.694567	-12.592804	9.588741	0.167355	22.632739	15.030732	0.000000	6.248099	3.865217	-13.082143	3.790916	0.066164	19.827877	13.116337	0.000000	0.234968	-0.741828	0.533613	0.436359	-0.986631	0.566964	0.386029	-1.803680	0.566964	0.268545	-1.803680	0.466911	0.218191	-1.512735	0.433560	0.134261	-1.149091	0.400210	1.678353	-8.391703	2.967795	0.000000	0.000000	27.911827	6.065498	-2.610148	17.937725	-22.877432	82.991153	9.840335	5.712410	-8.572870	-3.358026	10.936605	-37.055534	138.915677	9.657298	28.692837	-5.298495	5.112808
5.355932	-3.800876	-5.264949	93.169220	0.228477	0.981947	0.523003	6.846404	-4.649051	-12.300116	9.265819	0.161719	22.682576	15.104460	0.000000	6.084262	3.878512	-12.705712	3.896037	0.067999	19.718114	12.768875	0.000000	0.212812	-0.725613	0.478330	0.395213	-0.965066	0.508226	0.349629	-1.764256	0.508226	0.243223	-1.764256	0.418539	0.197617	-1.479671	0.388643	0.121601	-1.123975	0.358748	1.520095	-8.208284	2.660330	0.000000	0.000000	27.831489	6.315968	-1.874702	17.322538	-24.143765	79.483658	10.246932	6.842200	-8.519335	-3.255420	10.519899	-38.308341	141.948385	10.502029	30.344407	-5.748740	6.701378
5.372881	-3.753606	-5.076147	93.206799	0.228017	0.982871	0.523289	6.599009	-4.567554	-12.001842	8.954518	0.156286	22.683235	15.140656	0.000000	5.905274	3.857896	-12.360560	3.982379	0.069506	19.611480	12.435046	0.000000	0.191473	-0.702502	0.441199	0.355585	-0.934327	0.468774	0.314571	-1.708062	0.468774	0.218834	-1.708062	0.386049	0.177802	-1.432541	0.358474	0.109408	-1.088175	0.330899	1.367672	-7.946839	2.453816	0.000000	0.000000	27.757583	6.465383	-1.154738	16.694609	-25.273339	76.980234	10.455828	8.864894	-8.758094	-3.002866	10.192185	-39.084216	147.134574	11.169866	31.564336	-6.147158	8.298370
5.389831	-3.687565	-4.896609	93.238056	0.227539	0.983726	0.523535	6.364605	-4.470701	-11.727288	8.672529	0.151364	22.640969	15.159269	0.000000	5.722305	3.822963	-11.988142	4.040186	0.070515	19.524155	12.032394	0.000000	0.172586	-0.676349	0.425979	0.320510	-0.899545	0.452603	0.283542	-1.644476	0.452603	0.197249	-1.644476	0.372732	0.160264	-1.379212	0.346108	0.098616	-1.047665	0.319485	1.232767	-7.651000	2.369169	0.000000	0.000000	27.697204	6.515114	-0.513695	16.019781	-26.257329	75.629439	10.452061	10.995403	-9.185560	-2.778975	9.929647	-39.440885	154.200568	11.603379	32.607318	-6.449153	9.897592
5.406780	-3.607714	-4.735623	93.269146	0.227078	0.984460	0.523730	6.154483	-4.363965	-11.488721	8.432230	0.147170	22.545676	15.149865	0.000000	5.545452	3.776558	-11.591771	4.067348	0.070989	19.474130	11.583959	0.000000	0.157223	-0.648875	0.436666	0.291978	-0.863004	0.463957	0.258301	-1.577675	0.463957	0.179690	-1.577675	0.382082	0.145997	-1.323186	0.354791	0.089837	-1.005108	0.327499	1.123025	-7.340206	2.428603	0.000000	0.000000	27.641997	6.464475	0.020616	15.252151	-27.089867	75.212171	10.252991	12.668637	-9.623906	-2.719039	9.757711	-39.384382	163.182986	11.813768	33.644902	-6.782357	11.364969
5.423729	-3.516709	-4.594548	93.290863	0.226681	0.985048	0.523900	5.977348	-4.249325	-11.299424	8.245036	0.143903	22.404645	15.130945	0.000000	5.377892	3.717596	-11.196356	4.063954	0.070929	19.467033	11.123002	0.000000	0.145322	-0.621014	0.470668	0.269877	-0.825949	0.500085	0.238749	-1.509933	0.500085	0.166088	-1.509933	0.411835	0.134946	-1.266372	0.382418	0.083037	-0.961951	0.353001	1.038019	-7.025034	2.617715	0.000000	0.000000	27.584015	6.317292	0.429732	14.417415	-27.769156	75.128592	9.947008	13.989273	-9.946771	-2.850203	9.724098	-38.950829	173.776250	11.811543	34.626031	-7.083625	12.526750
5.440678	-3.449304	-4.458105	93.302731	0.226383	0.985495	0.524077	5.815404	-4.161768	-11.163633	8.111263	0.141568	22.230776	15.109425	0.000000	5.210396	3.679470	-10.787789	4.046503	0.070625	19.491182	10.629882	0.000000	0.132666	-0.598553	0.533761	0.246374	-0.796076	0.567121	0.217957	-1.455322	0.567121	0.151624	-1.455322	0.467041	0.123194	-1.220570	0.433681	0.075805	-0.927159	0.400321	0.947619	-6.770953	2.968619	0.000000	0.000000	27.518818	6.051909	0.576766	13.515422	-28.314522	74.761426	9.701569	15.036884	-10.183301	-3.138700	10.133267	-38.152905	186.131892	11.783831	34.798675	-7.205508	12.831886
5.457627	-3.391389	-4.341268	93.328645	0.226162	0.985775	0.524232	5.675137	-4.088517	-11.115033	8.023654	0.140039	22.042505	15.106764	0.000000	5.060724	3.646221	-10.387816	4.021976	0.070197	19.552686	10.177356	0.000000	0.121580	-0.580605	0.603310	0.225785	-0.772205	0.641017	0.199743	-1.411683	0.641017	0.138953	-1.411683	0.527896	0.112899	-1.183970	0.490190	0.069471	-0.899357	0.452483	0.868430	-6.567921	3.355431	0.000000	0.000000	27.444999	5.775056	0.587224	12.598031	-28.745070	73.898271	9.570914	15.976107	-10.365586	-3.457417	10.822189	-37.412014	197.218556	11.857163	34.708171	-7.132709	12.573239
5.474576	-3.348399	-4.255265	93.376843	0.226037	0.985883	0.524338	5.559725	-4.033216	-11.155848	7.971103	0.139122	21.855399	15.120540	0.000000	4.942674	3.621945	-10.025466	3.997716	0.069773	19.644643	9.815216	0.000000	0.112978	-0.568487	0.668930	0.209812	-0.756088	0.710738	0.185612	-1.382220	0.710738	0.129123	-1.382220	0.585314	0.104912	-1.159260	0.543506	0.064556	-0.880587	0.501697	0.806993	-6.430843	3.720387	0.000000	0.000000	27.371711	5.522600	0.492109	11.695541	-29.036779	72.589247	9.528756	16.828664	-10.519407	-3.740070	11.703233	-36.895437	207.437960	12.080921	32.665860	-6.880284	11.748063
5.491525	-3.318793	-4.200660	93.452160	0.225946	0.985840	0.524383	5.468428	-3.998914	-11.291555	7.951156	0.138774	21.695901	15.164762	0.000000	4.860979	3.607931	-9.722562	3.980727	0.069477	19.757914	9.571186	0.000000	0.106479	-0.562545	0.725994	0.197742	-0.748184	0.771369	0.174934	-1.367771	0.771369	0.121695	-1.367771	0.635245	0.098876	-1.147141	0.589870	0.060842	-0.871382	0.544495	0.760568	-6.363617	4.037760	0.000000	0.000000	27.310038	5.305848	0.241532	10.861803	-29.185113	71.280159	9.508148	17.282382	-10.534760	-4.003501	12.343229	-36.609583	213.368458	12.321935	30.956731	-6.370611	10.578978
5.508475	-3.295099	-4.176724	93.546652	0.225861	0.985665	0.524370	5.401817	-3.977776	-11.486160	7.958837	0.138908	21.582865	15.215759	0.000000	4.813900	3.598647	-9.487235	3.963639	0.069179	19.885581	9.442062	0.000000	0.102031	-0.561220	0.777545	0.189482	-0.746423	0.826142	0.167627	-1.364552	0.826142	0.116611	-1.364552	0.680352	0.094746	-1.144441	0.631755	0.058301	-0.869331	0.583159	0.728798	-6.348639	4.324473	0.000000	0.000000	27.266650	5.109137	-0.155809	10.106717	-29.218903	69.943973	9.556863	17.396748	-10.487827	-4.220168	12.734176	-36.527702	214.949632	12.553709	29.162142	-5.675737	9.153095
5.525424	-3.269864	-4.184915	93.674566	0.225720	0.985376	0.524321	5.359149	-3.962227	-11.722668	7.982086	0.139314	21.519697	15.230925	0.000000	4.811427	3.590725	-9.326266	3.953569	0.069003	20.018513	9.425539	0.000000	0.100396	-0.561974	0.819145	0.186446	-0.747426	0.870341	0.164941	-1.366385	0.870341	0.114743	-1.366385	0.716751	0.093228	-1.145978	0.665555	0.057366	-0.870498	0.614358	0.717120	-6.357167	4.555836	0.000000	0.000000	27.245320	4.942023	-0.596984	9.444584	-29.160097	68.480023	9.693691	17.376259	-10.353325	-4.333792	12.867670	-36.616351	212.127330	12.756494	26.882997	-4.817892	7.583121
5.542373	-3.236734	-4.218589	93.834242	0.225495	0.985014	0.524239	5.339668	-3.948260	-12.000030	8.021885	0.140008	21.505819	15.223317	0.000000	4.846275	3.577788	-9.256230	3.945219	0.068857	20.145062	9.534204	0.000000	0.101542	-0.563028	0.853892	0.188573	-0.748827	0.907261	0.166823	-1.368945	0.907261	0.116052	-1.368945	0.747156	0.094292	-1.148126	0.693788	0.058021	-0.872130	0.640419	0.725302	-6.369082	4.749094	0.000000	0.000000	27.244922	4.752713	-1.093959	8.882330	-29.025182	67.161173	9.895085	17.079336	-10.059808	-4.326529	12.814622	-36.828211	205.048026	12.874240	24.242803	-3.753173	6.017600
